<?xml version="1.0" encoding="UTF-8"?>
<svg width="41px" height="68px" viewBox="0 0 41 68" version="1.1" xmlns="http://www.w3.org/2000/svg" xmlns:xlink="http://www.w3.org/1999/xlink">
    <title>eAi_logo</title>
    <g id="eAi_logo" stroke="none" fill="none" transform="translate(0.69, 0.0505)" fill-rule="evenodd" stroke-width="1">
        <g id="Group" transform="translate(-2.0907, -3.2696)">
            <path d="M26.6074219,30.90625 L28.9511719,30.90625 C24.8170573,40.1184896 19.5110677,44.7246094 13.0332031,44.7246094 C10.3639323,44.7246094 8.19108073,43.788737 6.51464844,41.9169922 C4.83821615,40.0452474 4,37.5143229 4,34.3242188 C4,30.2877604 5.08235677,25.7304687 7.24707031,20.6523438 C9.41178385,15.5742188 12.4879557,11.1959635 16.4755859,7.51757812 C20.4632161,3.83919271 23.938151,2 26.9003906,2 C28.7233073,2 30.1067708,2.57779948 31.0507813,3.73339844 C31.9947917,4.8889974 32.4667969,6.32942708 32.4667969,8.0546875 C32.4667969,11.5703125 30.7089844,14.9475911 27.1933594,18.1865234 C23.6777344,21.4254557 18.4042969,24.5423177 11.3730469,27.5371094 C10.4615885,30.3691406 10.0058594,33.0546875 10.0058594,35.59375 C10.0058594,37.6770833 10.4127604,39.2395833 11.2265625,40.28125 C12.0403646,41.3229167 13.2447917,41.84375 14.8398438,41.84375 C19.2994792,41.84375 23.2220052,38.1979167 26.6074219,30.90625 Z M12.1054688,25.046875 C16.3046875,23.1588542 20.0807292,20.5546875 23.4335938,17.234375 C26.7864583,13.9140625 28.4628906,10.9029948 28.4628906,8.20117188 C28.4628906,6.96419271 28.210612,6.04459635 27.7060547,5.44238281 C27.2014974,4.84016927 26.4446615,4.5390625 25.4355469,4.5390625 C23.4824219,4.5390625 21.179362,6.43522135 18.5263672,10.2275391 C15.8733724,14.0198568 13.7330729,18.9596354 12.1054688,25.046875 Z" id="Shape-Copy-4" fill="#61B524" fill-rule="nonzero" transform="translate(18.2334, 23.3623) rotate(9) translate(-18.2334, -23.3623)"></path>
            <path d="M24.7207046,47.7159603 C27.2501688,47.7159603 29.3007046,45.6654244 29.3007046,43.1359603 C29.3007046,40.6064961 27.2501688,38.5559603 24.7207046,38.5559603 C22.1912405,38.5559603 20.1407046,40.6064961 20.1407046,43.1359603 C20.1407046,45.6654244 22.1912405,47.7159603 24.7207046,47.7159603 Z M31.6507046,27.4295917 L42.0907046,70.2695917 L29.0707046,70.2695917 L29.0707046,53.5077336 L20.1907046,53.5077336 L20.1907046,70.2695917 L7.35070463,70.2695917 L17.6107046,27.4295917 L31.6507046,27.4295917 Z" id="Shape-Copy-3" fill="#009AE8" fill-rule="nonzero"></path>
        </g>
    </g>
</svg>