<svg xmlns="http://www.w3.org/2000/svg" viewBox="0 0 410 404" fill="none"><path d="M399.641 59.524L215.643 388.545a22.61 22.61 0 0 1-39.329.011L10.312 59.511c-5.52-10.37 3.4-22.81 15.14-21.12l184.14 26.39a13.74 13.74 0 0 0 3.9 0l170.95-26.37c11.73-1.81 20.67 10.71 15.2 21.11Z" fill="#41D1FF"/><path d="M292.965.042L156.414 26.775a6.885 6.885 0 0 0-5.536 5.83L141.57 92.14a6.885 6.885 0 0 0 8.257 7.7l38.003-8.77a6.885 6.885 0 0 1 8.26 8.05l-11.29 55.26a6.885 6.885 0 0 0 8.45 8.06l23.46-5.68a6.885 6.885 0 0 1 8.41 8.13l-17.95 86.95c-1.13 5.45 6.11 8.42 9.11 3.74l2.01-3.13 111.27-222.13c1.87-3.74-1.37-8.03-5.51-7.29l-39.14 7.11a6.885 6.885 0 0 1-7.88-8.77l25.55-88.67c1.2-4.18-2.68-8.03-6.91-7.2Z" fill="#BD34FE"/></svg>
